<?xml version="1.0" standalone="no"?>
<!DOCTYPE svg PUBLIC "-//W3C//DTD SVG 20010904//EN"
 "http://www.w3.org/TR/2001/REC-SVG-20010904/DTD/svg10.dtd">
<svg version="1.0" xmlns="http://www.w3.org/2000/svg"
 width="447.000000pt" height="447.000000pt" viewBox="0 0 447.000000 447.000000"
 preserveAspectRatio="xMidYMid meet">
<metadata>
Created by potrace 1.11, written by Peter Selinger 2001-2013
</metadata>
<g transform="translate(0.000000,447.000000) scale(0.100000,-0.100000)"
fill="#000000" stroke="none">
<path d="M1240 3693 c-24 -26 -105 -113 -180 -193 -75 -80 -160 -170 -188
-200 -28 -30 -52 -62 -52 -70 0 -8 7 -40 15 -70 8 -30 17 -66 20 -80 3 -14 21
-92 40 -175 20 -82 38 -157 40 -165 2 -8 11 -46 20 -85 9 -38 18 -77 20 -85 2
-8 17 -72 33 -141 17 -69 33 -136 36 -150 4 -23 104 -446 166 -704 15 -66 32
-136 35 -155 31 -151 147 -246 286 -233 162 15 272 121 271 262 0 31 -18 133
-40 226 -23 94 -43 181 -46 195 -2 14 -12 57 -21 95 -9 39 -32 138 -51 220
-19 83 -41 177 -49 210 -8 33 -16 71 -19 85 -4 21 -83 367 -141 615 -8 33 -37
159 -64 280 -28 121 -59 253 -69 293 l-17 73 -45 -48z"/>
<path d="M4147 3583 c-1 0 -74 -3 -162 -4 -88 -2 -170 -5 -182 -8 -22 -6 -48
-46 -294 -453 -62 -102 -88 -155 -85 -170 4 -22 155 -629 177 -712 l11 -40 18
30 c9 16 160 261 335 544 175 283 323 524 329 535 6 11 35 58 64 105 30 47 59
94 65 105 7 11 20 33 30 48 l19 28 -162 -3 c-89 -2 -162 -4 -163 -5z"/>
<path d="M1987 3349 c-125 -29 -212 -135 -210 -254 1 -27 36 -194 77 -370 42
-176 78 -329 80 -340 3 -11 16 -67 30 -125 33 -137 107 -451 111 -470 2 -8 12
-54 24 -102 11 -48 23 -98 25 -110 50 -233 77 -295 144 -342 80 -55 159 -64
267 -30 104 33 185 138 185 240 0 17 -27 146 -59 285 -33 140 -71 306 -86 369
-14 63 -30 132 -35 153 -6 20 -14 54 -20 75 -5 20 -25 109 -46 197 -20 88 -50
216 -66 285 -17 69 -32 136 -34 150 -3 14 -7 33 -10 42 -3 9 -7 25 -9 36 -18
93 -51 188 -81 226 -62 82 -167 113 -287 85z"/>
<path d="M2869 3338 c-63 -21 -119 -69 -149 -128 -36 -70 -36 -121 -1 -276 17
-76 33 -148 35 -159 3 -11 34 -153 70 -315 37 -162 68 -304 70 -315 3 -11 11
-49 20 -85 8 -36 17 -76 19 -90 3 -14 12 -54 20 -90 20 -81 47 -207 53 -240 3
-14 6 -30 9 -37 8 -22 188 -838 188 -852 0 -14 88 75 321 323 61 66 121 129
133 140 20 19 21 25 12 66 -6 25 -13 55 -15 68 -3 13 -18 83 -35 155 -17 73
-32 140 -35 150 -2 10 -5 26 -8 35 -3 9 -7 28 -10 42 -2 14 -32 147 -66 295
-34 149 -63 278 -66 288 -2 10 -5 26 -8 35 -3 9 -7 28 -10 42 -3 14 -16 75
-31 135 -28 119 -102 445 -111 485 -26 122 -48 199 -64 224 -70 114 -197 152
-341 104z"/>
<path d="M840 2288 c-5 -13 -29 -54 -54 -93 -40 -63 -146 -236 -187 -303 -15
-25 -176 -286 -402 -652 -50 -80 -114 -185 -144 -233 l-53 -88 227 6 c448 13
456 13 465 27 12 18 135 219 257 421 69 114 100 175 97 190 -2 12 -9 42 -16
67 -7 25 -14 52 -15 60 -2 8 -25 98 -50 200 -26 102 -48 193 -50 203 -2 10 -7
27 -10 37 -3 10 -8 28 -10 39 -11 46 -13 58 -24 99 -13 48 -18 51 -31 20z"/>
</g>
</svg>
